<svg width="25" height="25" viewBox="0 0 25 25" fill="none" xmlns="http://www.w3.org/2000/svg">
<path d="M19.0104 3.125C20.5925 3.125 21.875 4.40752 21.875 5.98958V19.0104C21.875 20.5925 20.5925 21.875 19.0104 21.875H5.98958C4.40752 21.875 3.125 20.5925 3.125 19.0104V5.98958C3.125 4.40752 4.40752 3.125 5.98958 3.125H19.0104ZM19.0104 4.6875H5.98958C5.27046 4.6875 4.6875 5.27046 4.6875 5.98958V19.0104C4.6875 19.7295 5.27046 20.3125 5.98958 20.3125H19.0104C19.7295 20.3125 20.3125 19.7295 20.3125 19.0104V5.98958C20.3125 5.27046 19.7295 4.6875 19.0104 4.6875ZM10.4167 15.041L17.1559 8.30174C17.461 7.99664 17.9557 7.99664 18.2608 8.30174C18.5381 8.5791 18.5633 9.01312 18.3364 9.31897L18.2608 9.40659L10.9691 16.6983C10.6917 16.9756 10.2577 17.0008 9.95186 16.7739L9.86424 16.6983L6.73924 13.5733C6.43414 13.2682 6.43414 12.7735 6.73924 12.4684C7.0166 12.191 7.45062 12.1658 7.75647 12.3928L7.84409 12.4684L10.4167 15.041Z" fill="black"/>
</svg>
